<svg id="Layer_1" data-name="Layer 1" xmlns="http://www.w3.org/2000/svg" viewBox="0 0 132 132"><title>18 - Complete Your Implementation Intentions</title><path d="M8.65,0A8.65,8.65,0,0,0,0,8.65v114.7A8.65,8.65,0,0,0,8.65,132H65V0H8.65" fill="#f0efef"/><path d="M123.35,0H65V132h58.35a8.65,8.65,0,0,0,8.65-8.65V8.65A8.65,8.65,0,0,0,123.35,0" fill="#f0efef"/><path d="M123.35,0H65V132h58.35a8.65,8.65,0,0,0,8.65-8.65V8.65A8.65,8.65,0,0,0,123.35,0" fill="#e5e4e4"/><path d="M13.81,92.69C34.48,77.48,40.54,72.25,40.54,66.05c0-4.39-4-6.59-8.25-6.59a18,18,0,0,0-13.48,5.83l-6.13-7.12c4.92-5.67,12.41-8.25,19.45-8.25,10.75,0,19.31,6.06,19.31,16.13,0,8.63-7.12,16.12-20.67,25.66H51.82v9.46h-38Z" fill="#fff"/><path d="M84,86.94a20.12,20.12,0,0,0,13.93,5.75c6.13,0,9.53-2.65,9.53-6.51,0-4.09-3.1-6-10.14-6-2.12,0-5.52,0-6.28.08V70.89c.91.08,4.31.08,6.28.08,5.6,0,9.31-1.82,9.31-5.61,0-4-4.09-6-9.38-6a18.24,18.24,0,0,0-12.87,5.3L79.08,58c4.09-4.62,10.44-8,19.3-8,11.81,0,19.08,5.3,19.08,13.7,0,6.36-5.45,10.53-11.06,11.51,5.15.53,11.81,4.54,11.81,12.11,0,8.71-7.79,14.84-19.91,14.84-9.31,0-16.19-3.56-19.9-8.1Z" fill="#fff"/><polyline points="0 0.5 0 21.66 65 21.66 65 0.5 0 0.5" fill="#f05351"/><polyline points="65 0.5 65 0.5 5.74 0.5 0 0.5 0 21.66 65 21.66 65 0.5" fill="#ee2830"/><rect x="65" y="0.5" width="67" height="21.16" fill="#f05351"/></svg>