<?xml version="1.0" encoding="utf-8"?>
<!-- Generator: Adobe Illustrator 24.0.0, SVG Export Plug-In . SVG Version: 6.00 Build 0)  -->
<svg version="1.1" id="Layer_1" xmlns="http://www.w3.org/2000/svg" x="0px" y="0px" viewBox="0 0 49.2 132" style="enable-background:new 0 0 49.2 132;" xml:space="preserve">
<style type="text/css">
	.st0{fill:#999999;}
	.st1{fill:#D2B67B;}
	.st2{fill:#6B6D6D;}
	.st3{fill:#EFD471;}
</style>
<title>8 - Ground Ginger</title>
<path class="st0" d="M24.6,5.8V0C11,0,0,13.6,0,30.4c0,13.4,7.1,24.8,16.8,28.8V132h7.8V54.9c-2.7,0-5.4-0.7-7.8-2
	C9.7,49.2,4.7,40.5,4.7,30.4C4.7,16.8,13.6,5.8,24.6,5.8"/>
<path class="st0" d="M24.6,0v5.8c11,0,19.9,11,19.9,24.5c0,10.1-5,18.8-12.1,22.6c-2.4,1.3-5.1,2-7.8,2v4.5v1.3V132h7.8V59.2
	c9.8-4,16.8-15.4,16.8-28.8h0C49.2,13.6,38.2,0,24.6,0z"/>
<path class="st1" d="M4.7,30.4c0,10.1,5,18.8,12.1,22.6c2.4,1.3,5.1,2,7.8,2v-49C13.6,5.9,4.7,16.9,4.7,30.4"/>
<path class="st2" d="M24.6,0C11,0,0,13.6,0,30.4c0,13.4,7.1,24.8,16.8,28.8V132h7.8V54.9c-2.7,0-5.4-0.7-7.8-2
	C9.7,49.2,4.7,40.5,4.7,30.4l0,0c0-13.5,8.9-24.5,19.9-24.5V0"/>
<path class="st1" d="M24.6,5.8v49c2.7,0,5.4-0.7,7.8-2c7.1-3.7,12.1-12.4,12.1-22.6C44.5,16.8,35.6,5.8,24.6,5.8"/>
<path class="st3" d="M24.6,5.8c-11,0-19.9,11-19.9,24.5c0,10.1,5,18.8,12.1,22.6c2.4,1.3,5.1,2,7.8,2V5.8"/>
</svg>
