<?xml version="1.0" encoding="utf-8"?>
<!-- Generator: Adobe Illustrator 24.0.0, SVG Export Plug-In . SVG Version: 6.00 Build 0)  -->
<svg version="1.1" id="Layer_1" xmlns="http://www.w3.org/2000/svg" x="0px" y="0px" viewBox="0 0 48.5 129.9" style="enable-background:new 0 0 48.5 129.9;" xml:space="preserve">
<style type="text/css">
	.st0{fill:#999999;}
	.st1{fill:#292C2D;}
	.st2{fill:#6B6D6D;}
	.st3{fill:#131717;}
</style>
<title>6 - Black Cumin</title>
<path class="st0" d="M24.2,5.8V0C10.9,0,0,13.4,0,29.9c0,13.2,6.9,24.4,16.6,28.3v71.7h7.7V54c-2.7,0-5.3-0.7-7.7-1.9
	c-7-3.7-11.9-12.2-11.9-22.2C4.7,16.5,13.4,5.7,24.2,5.8"/>
<path class="st0" d="M24.2,0v5.8c10.8,0,19.6,10.8,19.6,24.1c0,10-4.9,18.5-11.9,22.2c-2.4,1.3-5,1.9-7.7,1.9v3.5v2.2v70.2h7.7V58.2
	c9.6-4,16.5-15.1,16.5-28.3C48.5,13.4,37.6,0,24.2,0z"/>
<path class="st1" d="M4.7,29.9c0,10,4.9,18.5,11.9,22.2c2.4,1.3,5,1.9,7.7,1.9V5.8C13.4,5.8,4.7,16.5,4.7,29.9"/>
<path class="st2" d="M24.2,0C10.9,0,0,13.4,0,29.9c0,13.2,6.9,24.4,16.6,28.3v71.7h7.7V54h-0.4c-2.5-0.1-5-0.7-7.3-1.9
	c-7-3.7-11.9-12.2-11.9-22.2l0,0C4.7,16.7,13.2,6,23.8,5.8h0.4V0"/>
<path class="st1" d="M24.2,5.8V54c2.7,0,5.3-0.7,7.7-1.9c7-3.7,11.9-12.2,11.9-22.2C43.8,16.5,35,5.8,24.2,5.8"/>
<path d="M24,5.8h-0.2V54h0.4V5.8H24"/>
<path class="st3" d="M23.8,5.8L23.8,5.8"/>
<path class="st3" d="M23.8,54L23.8,54"/>
<path d="M24.2,5.8V54c2.5-0.1,5-0.7,7.3-1.9c7-3.7,11.9-12.2,11.9-22.2C43.4,16.7,34.8,6,24.2,5.8"/>
</svg>
