<svg id="Layer_1" data-name="Layer 1" xmlns="http://www.w3.org/2000/svg" viewBox="0 0 91.36 130.76"><title>13 - Deflour Your Diet</title><path d="M36,65.06V49.55a9,9,0,0,1,9.21-9V0H40a1.28,1.28,0,0,0-1.28,1.28V8.07a1.28,1.28,0,0,1-1.28,1.28H32.81a1.28,1.28,0,0,1-1.28-1.28V1.28A1.28,1.28,0,0,0,30.25,0H19.62a1.28,1.28,0,0,0-1.28,1.28V8.07a1.28,1.28,0,0,1-1.28,1.28H12.91a1.28,1.28,0,0,1-1.28-1.28V1.28A1.28,1.28,0,0,0,10.35,0H1.41A1.41,1.41,0,0,0,0,1.41V17.52a1.4,1.4,0,0,0,.37.95l6.44,7.11a1.4,1.4,0,0,1,.37,1V130.76h38V65.06H36" fill="#292b2c"/><path d="M45.18,0H40a1.28,1.28,0,0,0-1.28,1.28V8.07h0a1.28,1.28,0,0,1-1.28,1.28H32.81a1.28,1.28,0,0,1-1.28-1.28V1.28A1.28,1.28,0,0,0,30.25,0H19.62a1.28,1.28,0,0,0-1.28,1.28V8.07h0a1.28,1.28,0,0,1-1.28,1.28H12.91a1.28,1.28,0,0,1-1.28-1.28V1.28A1.28,1.28,0,0,0,10.35,0H1.41A1.41,1.41,0,0,0,0,1.41V17.52a1.4,1.4,0,0,0,.37.95l6.44,7.11a1.4,1.4,0,0,1,.37,1V130.76h38V65.06H36V49.55h0a9,9,0,0,1,9-9h.19V0"/><path d="M90,0H80.06a1.28,1.28,0,0,0-1.29,1.28V8.07a1.28,1.28,0,0,1-1.28,1.28H72.86a1.28,1.28,0,0,1-1.28-1.28V1.28A1.28,1.28,0,0,0,70.3,0H59.19a1.28,1.28,0,0,0-1.28,1.28V8.07a1.28,1.28,0,0,1-1.28,1.28H52.48A1.28,1.28,0,0,1,51.2,8.07V1.28A1.28,1.28,0,0,0,49.92,0H45.18V40.55a9,9,0,0,1,6.18,2.63l.31.3a9,9,0,0,1,2.64,6.38v15.2H45.18v65.7H83.44V26.57a1.38,1.38,0,0,1,.42-1L91,18.48a1.45,1.45,0,0,0,.41-1V1.41A1.41,1.41,0,0,0,90,0Z" fill="#292b2c"/></svg>