<svg id="Layer_1" data-name="Layer 1" xmlns="http://www.w3.org/2000/svg" viewBox="0 0 132 132"><title>14 - Front-Load Your Calories</title><path d="M65.5,63.46l-36.4,0a2.32,2.32,0,0,0-2.32,2.32v0h41a2.32,2.32,0,0,0-2.32-2.3" fill="#00723a"/><path d="M26.78,65.76a2.32,2.32,0,0,0,2.31,2.3l36.41,0a2.31,2.31,0,0,0,2.32-2.31v0h-41" fill="#00723a"/><path d="M58.37,65.76H26.78a2.32,2.32,0,0,0,2.31,2.3l29.63,0a7.63,7.63,0,0,1-.35-2.3h0v0m9.45,0H66V68a2.32,2.32,0,0,0,1.82-2.26v0" fill="#004c2b"/><path d="M17.32,66A48.69,48.69,0,0,1,66,17.32V0a66,66,0,0,0,0,132V114.68A48.69,48.69,0,0,1,17.32,66" fill="#f0efef"/><path d="M66,0V17.32a48.68,48.68,0,0,1,0,97.36V132A66,66,0,0,0,66,0" fill="#f0efef"/><path d="M66,0V9.16h0v8.16h0V9.16h0a2.17,2.17,0,0,1,2.17,2.17v6A48.69,48.69,0,0,1,114.68,66h0A48.69,48.69,0,0,1,66,114.68V132A66,66,0,0,0,66,0" fill="#e5e4e4"/><path d="M66,9.16a2.17,2.17,0,0,0-2.17,2.17V58.48A7.45,7.45,0,0,1,66,58.16v-49" fill="#00723a"/><path d="M68.17,58.48V11.33A2.17,2.17,0,0,0,66,9.16v49a7.45,7.45,0,0,1,2.17.32" fill="#00723a"/><path d="M66,9.16v49h0a7.45,7.45,0,0,1,2.17.32V11.33A2.17,2.17,0,0,0,66,9.16" fill="#004c2b"/><path d="M63.83,58.48A7.63,7.63,0,0,0,66,73.42V58.16a7.45,7.45,0,0,0-2.17.32" fill="#00723a"/><path d="M66,58.16h0a7.45,7.45,0,0,0-2.17.32h0a7.58,7.58,0,0,0-5.46,7.28v0A7.62,7.62,0,0,0,66,73.42V58.16" fill="#004c2b"/><path d="M68.17,58.48A7.45,7.45,0,0,0,66,58.16V73.42a7.63,7.63,0,0,0,2.17-14.94Z" fill="#00723a"/></svg>