<?xml version="1.0" encoding="utf-8"?>
<!-- Generator: Adobe Illustrator 24.0.0, SVG Export Plug-In . SVG Version: 6.00 Build 0)  -->
<svg version="1.1" id="Layer_1" xmlns="http://www.w3.org/2000/svg" x="0px" y="0px" viewBox="0 0 104.3 130.9" style="enable-background:new 0 0 104.3 130.9;" xml:space="preserve">
<style type="text/css">
	.st0{fill:#00A08E;}
	.st1{fill:#00B1B4;}
</style>
<title>12 - Stay Hydrated</title>
<path class="st0" d="M40,34.7L40,34.7c-15.4,0-15.4,10-30.8,10c-0.8,0-1.5,0-2.2-0.1L23,131h29.2V37.7C48.5,35.6,44.2,34.6,40,34.7z
	"/>
<path class="st0" d="M0,0l7,37.5c0.7,0,1.4,0.1,2.2,0.1c15.4,0,15.4-10.1,30.8-10.1c4.3-0.1,8.5,0.9,12.2,3V0H0z"/>
<path class="st1" d="M70.8,44.8c-9.8,0-13.4-4.1-18.6-7V131h27l19.5-96.2C86.2,36,85.2,44.8,70.8,44.8z"/>
<path class="st1" d="M52.2,0v30.5c5.2,3,8.8,7,18.6,7c14.4,0,15.3-8.8,27.9-10L104.3,0H52.2z"/>
</svg>
