<?xml version="1.0" encoding="utf-8"?>
<!-- Generator: Adobe Illustrator 24.0.0, SVG Export Plug-In . SVG Version: 6.00 Build 0)  -->
<svg version="1.1" id="Layer_1" xmlns="http://www.w3.org/2000/svg" x="0px" y="0px" viewBox="0 0 132 136.6" style="enable-background:new 0 0 132 136.6;" xml:space="preserve">
<style type="text/css">
	.st0{fill:#F0EFEF;}
	.st1{fill:#6BAE74;}
	.st2{fill:#179353;}
	.st3{fill:#E5E4E4;}
</style>
<title>11 - Green Tea</title>
<path class="st0" d="M45.5,18.8v-1.6c0-2.3,0.1-4.7,0.6-7c0.4-2.4,1.5-4.6,3.2-6.3c2.6-2.3,6.2-3,9.8-3c0.3,0,0.7,0,1,0
	c16.5,0.6,30.5,12,34.5,28c1,4,1.3,8.5,3.7,12.2c1.7,2.4,3.9,4.4,6.5,5.8c2.7,1.5,5.8,2.4,8.9,2.4c3.1,0.1,6.1-1.1,8.2-3.5
	c1.9-2.3,2.9-5.2,2.9-8.1c0-0.3,0-0.7,0-1c-0.3-5-2.9-9.7-6.9-12.7c-1.3-1-2.9-1.6-4.6-1.7c-0.8,0-1.6,0.2-2.3,0.7
	c-1.5,1-2.1,2.7-2.6,4.3c-3.3,10.6-5.1,21.7-5.2,32.8c0,5.2,0.4,10.4,1.4,15.5l0.8-0.2c-0.9-5.1-1.4-10.2-1.3-15.4
	c0.1-11,1.9-22,5.2-32.5c0.4-1.5,1-3.1,2.2-3.8c0.6-0.4,1.2-0.5,1.9-0.5c1.5,0.1,2.9,0.6,4.1,1.5c3.9,2.9,6.3,7.3,6.6,12.1
	c0,0.3,0,0.6,0,0.9c0.1,2.8-0.9,5.5-2.7,7.6c-1.9,2.1-4.7,3.3-7.5,3.2c-3-0.1-5.9-0.9-8.5-2.3c-2.5-1.3-4.6-3.2-6.1-5.5
	c-2.2-3.5-2.6-7.9-3.6-12C91.4,12.3,77,0.6,60.1,0H59c-3.7,0-7.6,0.7-10.4,3.2C46.8,5,45.6,7.4,45.2,10c-0.4,2.4-0.6,4.8-0.6,7.2
	v1.6L45.5,18.8"/>
<polygon class="st1" points="121.5,69.8 107.1,69.8 104.6,71.8 104.2,72.2 101.5,69.8 86.1,69.8 76.5,79.4 76.5,122.9 86.1,132.5 
	104.6,132.5 121.5,132.5 132,122.1 132,80.2 "/>
<polyline class="st2" points="101.5,69.8 90.2,69.8 90.2,132.5 104.2,132.5 104.2,72.2 103.8,71.8 101.5,69.8 "/>
<path class="st0" d="M24.3,18.2c-2.6,0-5,1.2-6.6,3.3L1.6,43.5c-1,1.4-1.6,3.1-1.6,4.8v88.3h45.1V18.2H24.3"/>
<path class="st0" d="M90.2,46.9c0-1.9-0.6-3.7-1.8-5.2L71.7,21.3c-1.6-1.9-3.9-3-6.3-3H45.1v118.3h45.1V46.9"/>
<path class="st3" d="M65.3,18.2H45.1v118.3h45.1V46.9c0-1.9-0.6-3.7-1.8-5.2L71.7,21.3C70.1,19.4,67.8,18.3,65.3,18.2"/>
</svg>
