<svg id="Layer_1" data-name="Layer 1" xmlns="http://www.w3.org/2000/svg" viewBox="0 0 132 132"><title>15 - Time-Restrict Your Eating</title><path d="M8.65,0A8.65,8.65,0,0,0,0,8.65v114.7A8.65,8.65,0,0,0,8.65,132H65V0H8.65" fill="#2f93d1"/><path d="M65,0H8.65A8.65,8.65,0,0,0,0,8.65v114.7A8.65,8.65,0,0,0,8.65,132H65V0" fill="#0072bb"/><path d="M123.35,0H65V132h58.35a8.65,8.65,0,0,0,8.65-8.65V8.65A8.65,8.65,0,0,0,123.35,0Z" fill="#2f93d1"/><path d="M79.07,83.15c20.66-15.22,26.72-20.44,26.72-26.65,0-4.39-4-6.59-8.25-6.59a18,18,0,0,0-13.48,5.83l-6.13-7.11c4.92-5.68,12.42-8.25,19.46-8.25,10.75,0,19.3,6,19.3,16.12,0,8.63-7.12,16.12-20.67,25.66h21v9.46h-38Z" fill="#fff"/><polygon points="33.82 54.61 25.49 63.16 19.36 56.73 35.26 40.75 44.64 40.75 44.64 91.25 33.82 91.25 33.82 54.61" fill="#fff"/></svg>