<svg id="Layer_1" data-name="Layer 1" xmlns="http://www.w3.org/2000/svg" viewBox="0 0 114.74 134.37"><title>16 - Optimize Exercise Timing</title><polyline points="66.65 31.28 66.65 13.34 57.37 13.34 57.37 31.28 66.65 31.28" fill="#f0efef"/><polyline points="48.09 31.28 57.37 31.28 57.37 13.34 48.09 13.34 48.09 31.28" fill="#f0efef"/><path d="M70.79,0H57.37V10.79H70.79a2.86,2.86,0,0,0,2.87-2.87v-5A2.87,2.87,0,0,0,70.79,0" fill="#f0efef"/><path d="M66.65,13.34H57.37v9h0v7.55h0V22.38h0a54.48,54.48,0,0,1,9.28.79V13.34" fill="#e5e4e4"/><path d="M70.79,0H57.37V10.79H70.79a2.86,2.86,0,0,0,2.87-2.87v-5A2.87,2.87,0,0,0,70.79,0" fill="#e5e4e4"/><path d="M44,0a2.88,2.88,0,0,0-2.87,2.87V7.92A2.87,2.87,0,0,0,44,10.79H57.37V0Z" fill="#f0efef"/><path d="M105.66,28.44a4.27,4.27,0,0,0-6,0L87,41.44a14.91,14.91,0,0,1,6,6.05l12.59-13a4.28,4.28,0,0,0,0-6.05" fill="#f0efef"/><path d="M102.64,27.19a4.23,4.23,0,0,0-3,1.25l-6.83,7.05a54.86,54.86,0,0,1,6,6.07l6.84-7.07a4.28,4.28,0,0,0-3-7.3" fill="#e5e4e4"/><path d="M9.16,28.33a4.28,4.28,0,0,0,0,6.05L22,47.49A15,15,0,0,1,24.63,44a14.72,14.72,0,0,1,3.47-2.57L15.21,28.35A4.28,4.28,0,0,0,9.16,28.33Z" fill="#f0efef"/><path d="M17.27,76.75a40.11,40.11,0,0,1,40.1-40.1V22.38a54.37,54.37,0,0,0,0,108.74V116.85a40.1,40.1,0,0,1-40.1-40.1" fill="#f0efef"/><path d="M57.37,22.38V36.65a40.1,40.1,0,0,1,0,80.2v14.27a54.37,54.37,0,0,0,0-108.74" fill="#f0efef"/><path d="M57.37,22.38v7.55h0v6.72h0V29.93h0a1.79,1.79,0,0,1,1.79,1.78v5A40.1,40.1,0,0,1,97.47,76.75h0a40.1,40.1,0,0,1-40.1,40.1v14.27a54.37,54.37,0,1,0,0-108.74" fill="#e5e4e4"/><path d="M56.78,78.28l24,14.5a1.79,1.79,0,0,0,2.46-.61h0L56.17,75.84a1.79,1.79,0,0,0,.61,2.44" fill="#00723a"/><path d="M83.28,92.16a1.79,1.79,0,0,0-.61-2.44l-24-14.5a1.78,1.78,0,0,0-2.45.61h0L83.28,92.16" fill="#00723a"/><path d="M57.71,75a1.32,1.32,0,0,0-.34,0v1.56l25.91,15.6a1.72,1.72,0,0,0,.25-.9,1.79,1.79,0,0,0-.86-1.54l-24-14.5a1.83,1.83,0,0,0-.92-.26" fill="#004c2b"/><path d="M57.37,29.93a1.79,1.79,0,0,0-1.79,1.78V70.55a6.62,6.62,0,0,1,1.79-.26V29.93" fill="#00723a"/><path d="M59.16,70.55V31.71a1.79,1.79,0,0,0-1.79-1.78V70.29a6.62,6.62,0,0,1,1.79.26" fill="#00723a"/><path d="M57.37,29.93V70.29h0a6.62,6.62,0,0,1,1.79.26V31.71a1.79,1.79,0,0,0-1.79-1.78" fill="#004c2b"/><path d="M55.58,70.55a6.29,6.29,0,0,0,1.79,12.32V70.29a6.62,6.62,0,0,0-1.79.26" fill="#00723a"/><path d="M57.37,70.29h0a6.62,6.62,0,0,0-1.79.26h0a6.29,6.29,0,0,0,1.79,12.32V70.29" fill="#004c2b"/><path d="M59.16,70.55a6.62,6.62,0,0,0-1.79-.26V82.87a6.29,6.29,0,0,0,1.79-12.32Z" fill="#00723a"/><path d="M57.37,22.63A54.37,54.37,0,1,1,3,77,54.37,54.37,0,0,1,57.37,22.63m0-3A57.37,57.37,0,1,0,114.74,77,57.43,57.43,0,0,0,57.37,19.63Z" fill="#fff"/></svg>