<svg id="Layer_1" data-name="Layer 1" xmlns="http://www.w3.org/2000/svg" viewBox="0 0 140.39 151.32"><title>2 - Preload with Negative Calorie</title><path d="M58.2,10.07C68.58,20.45,68.27,37.6,68.27,37.6s-17.15.32-27.54-10.07S30.67,0,30.67,0,47.82-.32,58.2,10.07" fill="#a4cd39"/><path d="M78.36,10.11C68,20.49,68.29,37.64,68.29,37.64S85.44,38,95.83,27.58,105.89,0,105.89,0,88.74-.27,78.36,10.11" fill="#a4cd39"/><path d="M62.59,48.45c-28-20.13-57.25-7.33-62,26.86-4.27,30.6,16.37,66.39,43.33,70.62a148.06,148.06,0,0,0,26.3,1.66V50.45c-2.49.85-4.56.19-7.6-2" fill="#f05351"/><path d="M35.85,38.86C18.2,38.86,3.8,52.2.56,75.31A60,60,0,0,0,0,83.48C0,112,19.3,142.07,43.89,145.93a146.66,146.66,0,0,0,22.49,1.71c1.27,0,2.54,0,3.81,0V50.45a6.17,6.17,0,0,1-2,.36c-1.7,0-3.38-.79-5.57-2.36-9.08-6.52-18.29-9.59-26.74-9.59" fill="#ee2830"/><path d="M30.83,0h-.16V.16c0,1.76.27,17.58,10.06,27.37S66.32,37.6,68.1,37.6h.17v-.17c0-1.82-.3-17.59-10.07-27.36S32.62,0,30.83,0" fill="#60bb46"/><path d="M140.35,81.45c-.26-9.12-1.85-17.91-7-25.67-13.32-20-36.6-23-59.66-7.19a14.71,14.71,0,0,1-3.46,1.86v97.14a145.68,145.68,0,0,0,24.49-2.66C122.29,139.45,141.34,110.88,140.35,81.45Z" fill="#f05351"/><polygon points="64.59 86.82 56.26 95.38 50.13 88.94 66.03 72.97 75.42 72.97 75.42 123.46 64.59 123.46 64.59 86.82" fill="#fff"/><path d="M81.92,80.13a5.49,5.49,0,0,0,3.31,1.31c1.09,0,1.61-.38,1.61-1s-.84-.91-1.93-1.13c-1.64-.31-3.76-.71-3.76-3,0-1.6,1.41-3,3.92-3a6,6,0,0,1,3.85,1.31l-1,1.72a4.08,4.08,0,0,0-2.84-1.11c-.91,0-1.5.34-1.5.89s.75.82,1.82,1c1.64.32,3.84.76,3.84,3.14,0,1.76-1.48,3.07-4.14,3.07a6.46,6.46,0,0,1-4.28-1.49Z" fill="#fff"/><path d="M91.61,80.76v-5H90v-2.2h1.58V71h2.54v2.62h1.94v2.2H94.15v4.32c0,.59.32,1,.87,1a1.39,1.39,0,0,0,.88-.28l.53,1.9a3.09,3.09,0,0,1-2.1.62A2.4,2.4,0,0,1,91.61,80.76Z" fill="#fff"/></svg>