<?xml version="1.0" encoding="utf-8"?>
<!-- Generator: Adobe Illustrator 24.0.0, SVG Export Plug-In . SVG Version: 6.00 Build 0)  -->
<svg version="1.1" id="Layer_1" xmlns="http://www.w3.org/2000/svg" x="0px" y="0px" viewBox="0 0 104.3 134" style="enable-background:new 0 0 104.3 134;" xml:space="preserve">
<style type="text/css">
	.st0{fill:#00A08E;}
	.st1{fill:#00B1B4;}
	.st2{fill:#FFFFFF;}
</style>
<title>1 - Preload with Water</title>
<path class="st0" d="M40,34.7L40,34.7c-15.4,0-15.4,10-30.8,10c-0.8,0-1.5,0-2.2-0.1L23,131h29.2V37.7C48.5,35.6,44.2,34.6,40,34.7z
	"/>
<path class="st0" d="M51.2,1h-50l6.6,35.5h1.4c7.4,0,11-2.4,14.9-4.9s8-5.2,16-5.2c3.9-0.1,7.7,0.7,11.2,2.4L51.2,1"/>
<path class="st0" d="M52.2,0H0l7,37.5c0.7,0,1.4,0.1,2.2,0.1c15.4,0,15.4-10.1,30.8-10.1c4.3-0.1,8.5,0.9,12.2,3L52.2,0"/>
<path class="st1" d="M70.8,44.8c-9.8,0-13.4-4.1-18.6-7V131h27l19.5-96.2C86.2,36,85.2,44.8,70.8,44.8z"/>
<path class="st1" d="M70.8,37c-7.5,0-11.2-2.4-15.1-5c-1-0.6-1.9-1.3-3-1.9V0.5h51l-5.4,26.6c-5.7,0.6-9.1,2.8-12.4,4.9
	C82,34.6,78.3,37,70.8,37z"/>
<path class="st1" d="M104.3,0H52.2v30.5c5.2,3,8.8,7,18.6,7c14.4,0,15.3-8.8,27.9-10L104.3,0z"/>
<polygon class="st2" points="46,69.5 37.7,78 31.6,71.6 47.5,55.6 56.9,55.6 56.9,106.1 46,106.1 "/>
<path class="st2" d="M63.4,62.8c0.9,0.8,2.1,1.3,3.3,1.3c1.1,0,1.6-0.4,1.6-1s-0.8-0.9-1.9-1.1c-1.7-0.3-3.8-0.7-3.8-3
	c0-1.6,1.4-3,3.9-3c1.4,0,2.8,0.4,3.8,1.3l-1,1.7c-0.8-0.7-1.8-1.1-2.8-1.1c-0.9,0-1.5,0.3-1.5,0.9s0.8,0.8,1.8,1
	c1.7,0.3,3.8,0.8,3.8,3.1c0,1.8-1.5,3.1-4.1,3.1c-1.6,0-3.1-0.5-4.3-1.5L63.4,62.8z"/>
<path class="st2" d="M73.1,63.4v-5h-1.6v-2.2h1.6v-2.6h2.5v2.6h2v2.2h-2v4.3c0,0.6,0.3,1,0.9,1c0.3,0,0.6-0.1,0.9-0.3l0.5,1.9
	c-0.6,0.5-1.3,0.7-2.1,0.6c-1.3,0.2-2.5-0.7-2.7-2C73.1,63.8,73.1,63.6,73.1,63.4z"/>
</svg>
