<svg id="Layer_1" data-name="Layer 1" xmlns="http://www.w3.org/2000/svg" viewBox="0 0 131 131"><title>4 - Enjoy Undistracted Meals</title><path d="M17.19,65.5A48.31,48.31,0,0,1,65.5,17.19V0a65.5,65.5,0,0,0,0,131V113.81A48.31,48.31,0,0,1,17.19,65.5" fill="#f0efef"/><path d="M65.5,0V17.19a48.31,48.31,0,0,1,0,96.62V131a65.5,65.5,0,0,0,0-131" fill="#f0efef"/><path d="M65.5,0V17.19h0A48.31,48.31,0,0,1,113.81,65.5h0A48.31,48.31,0,0,1,65.5,113.81V131a65.5,65.5,0,0,0,0-131" fill="#e5e4e4"/><path d="M113.81,65.5A48.31,48.31,0,0,0,65.5,17.19v96.62A48.31,48.31,0,0,0,113.81,65.5" fill="#f0efef"/><path d="M17.19,65.5A48.31,48.31,0,0,0,65.5,113.81V17.19A48.31,48.31,0,0,0,17.19,65.5" fill="#f0efef"/><path d="M65.5,17.19h0a48.31,48.31,0,0,0,0,96.62V17.19" fill="#e5e4e4"/></svg>