<svg id="Layer_1" data-name="Layer 1" xmlns="http://www.w3.org/2000/svg" viewBox="0 0 46.45 134.65"><title>3 - Incorporate Vinegar</title><path d="M32.32,9.76V3.91A3.91,3.91,0,0,0,28.41,0H22.89V9.76h9.43" fill="#fed700"/><path d="M22.89,0H17.37a3.9,3.9,0,0,0-3.9,3.91V9.76h9.42V0" fill="#fed700"/><path d="M13.47,9.76v.05A29.69,29.69,0,0,1,9.73,24.23L2,38.12a16,16,0,0,0-2,7.76v82.51a6.26,6.26,0,0,0,6.26,6.26H22.89V9.76H13.47" fill="#fed700"/><path d="M28.41,0H22.89V9.76h9.43V3.91A3.91,3.91,0,0,0,28.41,0" fill="#f8c114"/><path d="M22.89,9.76H13.47v.05h0A29.69,29.69,0,0,1,9.73,24.23L2,38.12a16,16,0,0,0-2,7.76v82.51a6.26,6.26,0,0,0,6.26,6.26H22.89V9.76" fill="#f8c114"/><path d="M43.83,37.75,37.18,27.62a29.76,29.76,0,0,1-4.86-16.3V9.76H22.89V134.65h17.3a6.26,6.26,0,0,0,6.26-6.26V46.52A16,16,0,0,0,43.83,37.75Z" fill="#fed700"/></svg>