<svg id="Layer_1" data-name="Layer 1" xmlns="http://www.w3.org/2000/svg" viewBox="0 0 134.7 130.55"><title>20 - Get Sufficient Sleep</title><path d="M126,125.11a5.14,5.14,0,1,0-10.26,0c0,.1,0,.21,0,.31l10.21.28a5.83,5.83,0,0,0,0-.59" fill="#292b2c"/><path d="M115.71,125.42a5.11,5.11,0,0,0,10.21.28l-10.21-.28" fill="#292b2c"/><path d="M91.16,118.28a5.88,5.88,0,0,0-5.7,6c0,.09,0,.18,0,.27l11.36.31a5.63,5.63,0,0,0,0-.58,5.89,5.89,0,0,0-5.7-6" fill="#292b2c"/><path d="M91.16,130.38a5.85,5.85,0,0,0,5.67-5.47l-11.36-.31a5.86,5.86,0,0,0,5.69,5.78" fill="#292b2c"/><path d="M58.3,130.19A6.5,6.5,0,0,0,64.61,124L52,123.69a6.52,6.52,0,0,0,6.32,6.5" fill="#292b2c"/><path d="M58.3,116.74A6.54,6.54,0,0,0,52,123.47v.22l12.63.34c0-.18,0-.37,0-.56a6.54,6.54,0,0,0-6.34-6.73" fill="#292b2c"/><path d="M26.7,130a7.22,7.22,0,0,0,7-6.79l-14-.38a7.23,7.23,0,0,0,7,7.17" fill="#292b2c"/><path d="M115.71,125.42a5.11,5.11,0,0,0,10.21.28l-10.21-.28"/><path d="M85.47,124.6a5.68,5.68,0,0,0,11.36.31l-11.36-.31"/><path d="M52,123.69a6.32,6.32,0,1,0,12.63.34L52,123.69"/><path d="M19.68,122.81a7.23,7.23,0,0,0,7,7.17,7.22,7.22,0,0,0,7-6.79l-14-.38"/><path d="M26.7,115a7.26,7.26,0,0,0-7,7.47c0,.1,0,.2,0,.3l14,.38c0-.22,0-.45,0-.68A7.26,7.26,0,0,0,26.7,115Z" fill="#292b2c"/><polyline points="93.74 56.03 134.7 56.03 134.7 43.43 111.61 43.43 125.01 24.45 97.53 39.13 93.74 44.52 93.74 56.03" fill="#292b2c"/><polyline points="134.15 11.51 134.15 0 93.74 0 93.74 12.6 116.2 12.6 97.53 39.13 125.01 24.45 134.15 11.51" fill="#292b2c"/><polyline points="96.22 34.4 96.22 23.94 59.47 23.94 59.47 35.39 79.89 35.39 65.05 56.48 90.05 43.13 96.22 34.4" fill="#292b2c"/><polyline points="59.47 74.87 96.72 74.87 96.72 63.42 75.72 63.42 90.05 43.13 65.05 56.48 59.47 64.41 59.47 74.87" fill="#292b2c"/><polyline points="28.32 92 62.17 92 62.17 81.58 43.09 81.58 58.25 60.12 35.51 72.26 28.32 82.48 28.32 92" fill="#292b2c"/><polyline points="61.72 55.2 61.72 45.69 28.32 45.69 28.32 56.1 46.88 56.1 35.51 72.26 58.25 60.12 61.72 55.2" fill="#292b2c"/><polyline points="29.34 75.56 30.37 74.11 30.37 65.46 0 65.46 0 74.93 16.88 74.93 8.66 86.6 29.34 75.56" fill="#292b2c"/><polyline points="134.15 0 93.74 0 93.74 12.6 116.2 12.6 97.53 39.13 125.01 24.45 134.15 11.51 134.15 0"/><polyline points="96.22 23.94 59.47 23.94 59.47 35.39 79.89 35.39 65.05 56.48 90.05 43.13 96.22 34.4 96.22 23.94"/><polyline points="61.72 45.69 28.32 45.69 28.32 56.1 46.88 56.1 35.51 72.26 58.25 60.12 61.72 55.2 61.72 45.69"/><polyline points="30.37 65.46 0 65.46 0 74.93 16.88 74.93 8.66 86.6 29.34 75.56 30.37 74.11 30.37 65.46"/><polygon points="0 98.92 0 107.56 30.78 107.56 30.78 98.09 13.43 98.09 29.34 75.56 8.66 86.6 0 98.92" fill="#292b2c"/></svg>