<?xml version="1.0" encoding="utf-8"?>
<!-- Generator: Adobe Illustrator 24.0.0, SVG Export Plug-In . SVG Version: 6.00 Build 0)  -->
<svg version="1.1" id="Layer_1" xmlns="http://www.w3.org/2000/svg" x="0px" y="0px" viewBox="0 0 132.4 119.3" style="enable-background:new 0 0 132.4 119.3;" xml:space="preserve">
<style type="text/css">
	.st0{fill:#999999;}
	.st1{fill:#6B6D6D;}
</style>
<title>19 - Fast After 7</title>
<path class="st0" d="M126.1,17.2l-4.3,4.3c8,8,6.5,22.5-3.4,32.4C111,61.3,101,64,93.1,61.6c-2.7-0.8-5.1-2.3-7.1-4.3l-4.3,4.3
	l-52.1,52.1l5.7,5.7l53.2-53.2c10.1,4.2,23.5,1,33.3-8.7C134.1,45.1,136,27.1,126.1,17.2z"/>
<path class="st0" d="M121.8,21.5l4.3-4.3c-9.9-9.9-27.9-8-40.1,4.2c-9.8,9.8-12.9,23.2-8.7,33.3L24,107.9l5.7,5.7l52-52.1l4.3-4.3
	c-2-2-3.4-4.4-4.3-7.1c-2.5-7.9,0.2-17.9,7.7-25.3C99.3,15,113.8,13.5,121.8,21.5"/>
<path class="st0" d="M89.4,24.9c-7.4,7.4-10.1,17.4-7.7,25.3c0.8,2.7,2.3,5.1,4.3,7.1l5.9-5.9l29.9-29.9
	C113.8,13.5,99.3,15,89.4,24.9"/>
<path class="st1" d="M60.2,71.7L24,107.9l5.7,5.7l36.2-36.2L60.2,71.7 M109.8,10.9c-8.1,0-16.9,3.6-23.9,10.6S75.4,37.2,75.4,45.3
	c0,3.2,0.6,6.4,1.8,9.4l0,0L65.9,66l5.7,5.7l10.1-10.1l4.3-4.3c-2-2-3.4-4.4-4.3-7.1c-0.6-1.9-0.9-4-0.9-6l0,0
	c0-6.5,2.9-13.6,8.5-19.2l0,0l0.1-0.1l0.3-0.3c5-5,11.8-8,18.9-8.2h0.1c4.8-0.1,9.5,1.7,12.9,5c0.1,0,0.1,0.1,0.2,0.2l0,0l4.3-4.3
	C121.7,13.1,115.9,10.8,109.8,10.9"/>
<path class="st1" d="M80.9,44.1L80.9,44.1c0,2,0.3,4.1,0.9,6c0.8,2.7,2.3,5.2,4.3,7.2l0,0c-2-2-3.4-4.4-4.3-7.1
	C81.1,48.2,80.8,46.2,80.9,44.1 M89.5,24.9L89.5,24.9L89.5,24.9 M121.6,21.4c0.1,0,0.1,0.1,0.2,0.2l0,0
	C121.8,21.5,121.7,21.4,121.6,21.4 M108.6,16.4c-7.1,0.2-13.9,3.1-18.9,8.2C94.8,19.5,101.5,16.6,108.6,16.4 M108.6,16.4L108.6,16.4
	"/>
<path class="st0" d="M121.8,21.5L91.9,51.4L86,57.3c2,2,4.4,3.5,7.1,4.3c7.9,2.5,17.9-0.3,25.3-7.6C128.3,44,129.8,29.5,121.8,21.5"
	/>
<path class="st1" d="M121.8,21.5L121.8,21.5L91.9,51.4L86,57.3c2,2,4.4,3.5,7.1,4.3c1.9,0.6,4,0.9,6,0.9c6.6,0,13.7-2.9,19.3-8.5
	s8.6-12.7,8.6-19.3C127.1,29.7,125.3,25,121.8,21.5L121.8,21.5"/>
<path class="st0" d="M46.1,48.2c-0.8,0.8-2,0.8-2.8,0c0,0,0,0,0,0L16.1,21c-0.8-0.8-2-0.8-2.8,0c0,0,0,0,0,0l-2.6,2.5
	c-0.8,0.8-0.8,2,0,2.8c0,0,0,0,0,0l27.2,27.2c0.8,0.8,0.8,2,0,2.8c0,0,0,0,0,0l-2,2c-0.8,0.8-2,0.8-2.8,0c0,0,0,0,0,0L5.9,31.2
	c-0.8-0.8-2-0.8-2.8,0c0,0,0,0,0,0l-2.5,2.5c-0.8,0.8-0.8,2,0,2.8c3.1,3.2,11.2,11.3,20.7,20.8c9.8,9.8,23.2,12.9,33.3,8.7
	l53.2,53.2l5.7-5.7l0,0L47.1,47.2L46.1,48.2"/>
<path class="st1" d="M14.7,20.4c-0.5,0-1,0.2-1.4,0.6l-2.6,2.5c-0.8,0.8-0.8,2,0,2.8c0,0,0,0,0,0l27.2,27.2c0.8,0.8,0.8,2,0,2.8
	c0,0,0,0,0,0l-2,2c-0.8,0.8-2,0.8-2.8,0c0,0,0,0,0,0L5.9,31.2c-0.8-0.8-2-0.8-2.8,0c0,0,0,0,0,0l-2.5,2.5c-0.8,0.8-0.8,2,0,2.8
	c3.1,3.2,11.2,11.3,20.7,20.8c7,7,15.8,10.6,23.9,10.6c3.2,0,6.4-0.6,9.4-1.8l53.2,53.2l5.7-5.7l0,0L77.3,77.4l-5.7-5.7L65.9,66
	L47.1,47.2l-1,1c-0.8,0.8-2,0.8-2.8,0c0,0,0,0,0,0L16.1,21C15.7,20.6,15.2,20.4,14.7,20.4"/>
<path class="st0" d="M33.7,0.6l-2.8,2.8c-0.8,0.8-0.8,2,0,2.8c0,0,0,0,0,0l27.2,27.2c0.8,0.8,0.8,2,0,2.8c0,0,0,0,0,0l-2,2
	c-0.8,0.8-2,0.8-2.8,0c0,0,0,0,0,0L26.1,11.1c-0.8-0.8-2-0.8-2.8,0c0,0,0,0,0,0l-2.3,2.3c-0.8,0.8-0.8,2,0,2.8c0,0,0,0,0,0
	l27.2,27.2c0.8,0.8,0.8,2,0,2.8c0,0,0,0,0,0l-1,1l66.4,66.4l5.7-5.7L66,54.7c4.2-10.1,1-23.5-8.7-33.3C51,15.2,40.3,4.4,36.5,0.6
	C35.8-0.2,34.5-0.2,33.7,0.6C33.7,0.6,33.7,0.6,33.7,0.6z"/>
</svg>
