<svg id="Layer_1" data-name="Layer 1" xmlns="http://www.w3.org/2000/svg" viewBox="0 0 133.45 133.45"><title>17 - Weigh Yours Self Twice a Day</title><path d="M10.22,0A8.65,8.65,0,0,0,1.46,8.54L0,123.23A8.65,8.65,0,0,0,8.54,132l56.35.72L66.56.72,10.22,0" fill="#fed700"/><path d="M10.1,0h.12L66.56.72l-1.67,132L66.56.72,10.22,0H10.1" fill="#fed600"/><path d="M10.1,0h0A8.65,8.65,0,0,0,1.46,8.54L0,123.23v.11A8.65,8.65,0,0,0,8.54,132l56.35.72L66.56.72,10.22,0H10.1" fill="#f8c114"/><path d="M124.91,1.46,66.56.72l-1.67,132,58.34.74a8.65,8.65,0,0,0,8.76-8.54l1.46-114.69A8.65,8.65,0,0,0,124.91,1.46Z" fill="#fed700"/><path d="M67,45.39A34.22,34.22,0,0,1,89.07,53.8a3.11,3.11,0,0,0,4.21-.08L105.36,42a3.07,3.07,0,0,0,0-4.46,57.26,57.26,0,0,0-76.69-.73,3.08,3.08,0,0,0-.14,4.45L40.24,53.28a3.11,3.11,0,0,0,4.24.16A34.24,34.24,0,0,1,67,45.39Z" fill="#fff"/></svg>